# xmcd CD database file
#
# Track frame offsets:
#	150
#	21090
#	49672
#	58957
#	87475
#	123377
#	146300
#	166890
#	190002
#	228795
#
# Disc length: 3318 seconds
#
# Revision: 0
# Processed by: cddbd v1.4PL0 Copyright (c) Steve Scherf et al.
# Submitted via: CDex 1.50
#
DISCID=7d0cf40a
DTITLE=Bobb Matos and Heritage Ensemble - Bobb Matos and Heritage Ensemble
DYEAR=1993
DGENRE=Jazz
TTITLE0=Herencia
TTITLE1=Groovin'
TTITLE2=Guiro Elegua
TTITLE3=The Creator Has A Master Plan
TTITLE4=Bembe...The Promised Land
TTITLE5=Traicion
TTITLE6=Cuidado
TTITLE7=Fairy Tales
TTITLE8=Naked City Theme (Somewhere In The Night)
TTITLE9=Afro Cubismo
EXTD=YEAR: 1993
EXTT0=
EXTT1=
EXTT2=
EXTT3=
EXTT4=
EXTT5=
EXTT6=
EXTT7=
EXTT8=
EXTT9=
PLAYORDER=
